{"title":"Biwi Ho To Aisi 1988 DVDRip x264 AAC","uid":8369029,"size":1237555139,"categoryP":"video","categoryS":"movies","magnet":"?xt=urn:btih:221aa7e0fb041838fcefbe0adb6c30109662de81&amp;dn=Biwi+Ho+To+Aisi+1988+DVDRip+x264+AAC&amp;tr=udp%3A%2F%2Ftracker.openbittorrent.com%3A80&amp;tr=udp%3A%2F%2Fopen.demonii.com%3A1337&amp;tr=udp%3A%2F%2Ftracker.coppersurfer.tk%3A6969&amp;tr=udp%3A%2F%2Fexodus.desync.com%3A6969","seeders":1,"leechers":1,"uploader":"Bclassics","files":1,"time":1365814531,"description":"\n\n-: Cover :- \n\n\n    &lt;a href=&quot;\thttp://desibbrg.org/images/41319097316365506002.jpg&quot; rel=&quot;nofollow&quot; target=&quot;_NEW&quot;&gt;\thttp://desibbrg.org/images/41319097316365506002.jpg&lt;/a&gt;\n\n-: Screens :-\n\n\n    &lt;a href=&quot;\thttp://desibbrg.org/images/86097606202204059442.jpg&quot; rel=&quot;nofollow&quot; target=&quot;_NEW&quot;&gt;\thttp://desibbrg.org/images/86097606202204059442.jpg&lt;/a&gt;\n    &lt;a href=&quot;\thttp://desibbrg.org/images/86673800404854590910.jpg&quot; rel=&quot;nofollow&quot; target=&quot;_NEW&quot;&gt;\thttp://desibbrg.org/images/86673800404854590910.jpg&lt;/a&gt;\n    &lt;a href=&quot;\thttp://desibbrg.org/images/83960331144083229975.jpg&quot; rel=&quot;nofollow&quot; target=&quot;_NEW&quot;&gt;\thttp://desibbrg.org/images/83960331144083229975.jpg&lt;/a&gt;\n    &lt;a href=&quot;\thttp://desibbrg.org/images/45658243513790090396.jpg&quot; rel=&quot;nofollow&quot; target=&quot;_NEW&quot;&gt;\thttp://desibbrg.org/images/45658243513790090396.jpg&lt;/a&gt;\n    &lt;a href=&quot;\thttp://desibbrg.org/images/41745669765618838914.jpg&quot; rel=&quot;nofollow&quot; target=&quot;_NEW&quot;&gt;\thttp://desibbrg.org/images/41745669765618838914.jpg&lt;/a&gt;\n    &lt;a href=&quot;\thttp://desibbrg.org/images/15703287116264750137.jpg&quot; rel=&quot;nofollow&quot; target=&quot;_NEW&quot;&gt;\thttp://desibbrg.org/images/15703287116264750137.jpg&lt;/a&gt;\n    &lt;a href=&quot;\thttp://desibbrg.org/images/22918476618363872313.jpg&quot; rel=&quot;nofollow&quot; target=&quot;_NEW&quot;&gt;\thttp://desibbrg.org/images/22918476618363872313.jpg&lt;/a&gt;\n    &lt;a href=&quot;\thttp://desibbrg.org/images/51893169665612386984.jpg&quot; rel=&quot;nofollow&quot; target=&quot;_NEW&quot;&gt;\thttp://desibbrg.org/images/51893169665612386984.jpg&lt;/a&gt;\n    &lt;a href=&quot;\thttp://desibbrg.org/images/09653461504680807546.jpg&quot; rel=&quot;nofollow&quot; target=&quot;_NEW&quot;&gt;\thttp://desibbrg.org/images/09653461504680807546.jpg&lt;/a&gt;\n\n\n\n\n\n\n-: Info :-\n\n\nGeneral\n\nFormat                           : MP4 Video\nFile size                        : 1.15 GiB\nDuration                         : 2h 29mn\nOverall bit rate                 : 1 105 Kbps\n\nVideo\nFormat                           : AVC\nFormat/Info                      : Advanced Video Codec\nFormat profile                   : &lt;a class=&quot;__cf_email__&quot; href=&quot;/cdn-cgi/l/email-protection&quot; data-cfemail=&quot;4d002c24230d017e637d&quot;&gt;[email&amp;#160;protected]&lt;/a&gt;&lt;script cf-hash='f9e31' type=&quot;text/javascript&quot;&gt;\n/* &lt;![CDATA[ */!function(){try{var t=&quot;currentScript&quot;in document?document.currentScript:function(){for(var t=document.getElementsByTagName(&quot;script&quot;),e=t.length;e--;)if(t[e].getAttribute(&quot;cf-hash&quot;))return t[e]}();if(t&amp;&amp;t.previousSibling){var e,r,n,i,c=t.previousSibling,a=c.getAttribute(&quot;data-cfemail&quot;);if(a){for(e=&quot;&quot;,r=parseInt(a.substr(0,2),16),n=2;a.length-n;n+=2)i=parseInt(a.substr(n,2),16)^r,e+=String.fromCharCode(i);e=document.createTextNode(e),c.parentNode.replaceChild(e,c)}}}catch(u){}}();/* ]]&gt; */&lt;/script&gt;\nFormat settings, CABAC           : Yes\nFormat settings, ReFrames        : 3 frames\n\nDuration                         : 2h 29mn\nBit rate                         : 969 Kbps\nWidth                            : 600 pixels\nHeight                           : 480 pixels\nDisplay aspect ratio             : 5:4\nFrame rate mode                  : Constant\nFrame rate                       : 25.000 fps\nColor space                      : YUV\nChroma subsampling               : 4:2:0\nBit depth                        : 8 bits\nScan type                        : Progressive\nBits/(Pixel*Frame)               : 0.135\nStream size                      : 1.01 GiB (88%)\n\nAudio\nFormat                           : AAC\nFormat/Info                      : Advanced Audio Codec\nFormat version                   : Version 4\nFormat profile                   : LC\nFormat settings, SBR             : No\nDuration                         : 2h 29mn\nBit rate                         : 129 Kbps\nChannel(s)                       : 2 channels\nChannel positions                : Front: L R\nSampling rate                    : 44.1 KHz\nBit depth                        : 16 bits\nStream size                      : 137 MiB (12%)\n\n\n &lt;a href=&quot;\nhttp://www.imdb.com/title/tt0168516/&quot; rel=&quot;nofollow&quot; target=&quot;_NEW&quot;&gt;\nhttp://www.imdb.com/title/tt0168516/&lt;/a&gt;\n\n\nSuraj Bhandari (Farooq Shaikh) is the well-mannered and obedient son of Kailash and Kamla Bhandari. Theirs is an affluent upper-class family. The household is fiercely dominated by Kamla (Bindu) who wants her eldest son to marry a girl whose social status matches theirs.\nHowever, contrary to her wishes Suraj follows his heart and marries the not so rich, yet talented Village belle Shalu (Rekha) which infuriates Kamla to no end, and together with her comical, but scheming secretary (Asrani), vows to throw her out of the house with their shrewd and cunning tactics deployed against her.\nMeanwhile Shalu tries to be a dutiful daughter-in-law by trying to win the heart of Kamla. She has the full support and understanding of her father-in-law (the hen-pecked husband of Kamla) Kailash Bhandari (Kader Khan) who treats her like a daughter and her young brother-in-law Vicky (Salman Khan) who sometimes cannot bear the atrocities meted out at his sister-in-law and gets vocal in protests against his tyrant mother.\nAfter endless attempts of humiliation and personal attacks, Shalu hits back in her style and her true identity is revealed towards the climax. She shocks everyone with her diction and articulate speech in sharp contrast to her crude village belle identity.\nHer father Ashok Mehra (a family friend of the Bhandaris) reveals her true identity. Kamla learns that Shalu is the Oxford-educated daughter of Mehra, who in connivance with her husband (Kailash), had won her way into the family in a way to teach her a lesson in humility and humanity. Kailash gets vocal against his wife for the first time.\nKamla realises and repents of her behaviour towards the family when they all decide to leave her and the house. Kamla sincerely apologises to all and happiness finally enters the Bhandari household.\n\n    Category\n        Family\n        Comedy\n        Drama\n    Starring:\n        Rekha\n        Farooq Sheikh\n        Bindu\n        Kader Khan\n        Asrani\n        Salman Khan\n    Directed by:\n        J.K. Bihari\n    Produced by:\n        K C Bokadia\n        Suresh Bhagat\n    Written by:\n        J.K. Bihari\n\n","torrent":{"xt":"urn:btih:221aa7e0fb041838fcefbe0adb6c30109662de81","amp;dn":"Biwi+Ho+To+Aisi+1988+DVDRip+x264+AAC","amp;tr":["udp%3A%2F%2Ftracker.openbittorrent.com%3A80","udp%3A%2F%2Fopen.demonii.com%3A1337","udp%3A%2F%2Ftracker.coppersurfer.tk%3A6969","udp%3A%2F%2Fexodus.desync.com%3A6969"],"infoHash":"221aa7e0fb041838fcefbe0adb6c30109662de81","infoHashBuffer":{"type":"Buffer","data":[34,26,167,224,251,4,24,56,252,239,190,10,219,108,48,16,150,98,222,129]},"announce":[],"urlList":[]}}